name rise30.6535peak61.5555fall82.9339.mot
datacolumns 19
datarows 23
range 13.63661100000000 13.67327500000000
endheader
time	ground_force1_vx	ground_force1_vy	ground_force1_vz	ground_force1_px	ground_force1_py	ground_force1_pz	ground_force2_vx	ground_force2_vy	ground_force2_vz	ground_force2_px	ground_force2_py	ground_force2_pz	ground_torque1_x	ground_torque1_y	ground_torque1_z	ground_torque2_x	ground_torque2_y	ground_torque2_z	
13.63661100000000	-7.94060300000000	41.34663600000000	-13.42678700000000	0.32237500000000	0.00000000000000	0.08703200000000	-47.61300900000000	807.05159200000003	-50.92128900000000	0.16113500000000	0.00000000000000	-0.09987100000000	0.00000000000000	-9.19610100000000	0.00000000000000	0.00000000000000	-23.42504700000000	0.00000000000000	
13.63827300000000	-8.62899700000000	48.35039000000000	-15.03840000000000	0.32887200000000	0.00000000000000	0.08840200000000	-48.62401100000000	804.35823900000003	-50.68312900000000	0.16023400000000	0.00000000000000	-0.09975400000000	0.00000000000000	-10.42694100000000	0.00000000000000	0.00000000000000	-23.47172700000000	0.00000000000000	
13.63994000000000	-9.14732200000000	55.41690500000000	-16.48288900000000	0.33483800000000	0.00000000000000	0.08965000000000	-49.65219600000000	801.51578199999994	-50.42952500000000	0.15933800000000	0.00000000000000	-0.09963400000000	0.00000000000000	-11.56474300000000	0.00000000000000	0.00000000000000	-23.51977900000000	0.00000000000000	
13.64161200000000	-9.47450300000000	62.45449800000000	-17.72534100000000	0.34033800000000	0.00000000000000	0.09079500000000	-50.69623200000000	798.52109499999995	-50.16017100000000	0.15844600000000	0.00000000000000	-0.09951200000000	0.00000000000000	-12.58194100000000	0.00000000000000	0.00000000000000	-23.56891000000000	0.00000000000000	
13.64327900000000	-9.59896600000000	69.39512400000000	-18.74335200000000	0.34542800000000	0.00000000000000	0.09185100000000	-51.75466900000000	795.37104699999998	-49.87476500000000	0.15755900000000	0.00000000000000	-0.09938800000000	0.00000000000000	-13.45934000000000	0.00000000000000	0.00000000000000	-23.61879900000000	0.00000000000000	
13.64494200000000	-9.51840100000000	76.19637600000000	-19.52708400000000	0.35015300000000	0.00000000000000	0.09282900000000	-52.82594600000000	792.06251199999997	-49.57301200000000	0.15667600000000	0.00000000000000	-0.09926200000000	0.00000000000000	-14.18647600000000	0.00000000000000	0.00000000000000	-23.66910500000000	0.00000000000000	
13.64661500000000	-9.23880600000000	82.84104900000000	-20.07830000000000	0.35455200000000	0.00000000000000	0.09374000000000	-53.90838400000000	788.59237499999995	-49.25462300000000	0.15579900000000	0.00000000000000	-0.09913300000000	0.00000000000000	-14.76118100000000	0.00000000000000	0.00000000000000	-23.71946300000000	0.00000000000000	
13.64828000000000	-8.77300900000000	89.33468900000000	-20.40860100000000	0.35865600000000	0.00000000000000	0.09459200000000	-55.00019300000000	784.95755099999997	-48.91932100000000	0.15492600000000	0.00000000000000	-0.09900300000000	0.00000000000000	-15.18855700000000	0.00000000000000	0.00000000000000	-23.76948300000000	0.00000000000000	
13.64994400000000	-8.13888700000000	95.70169000000000	-20.53716800000000	0.36249300000000	0.00000000000000	0.09539200000000	-56.09947200000000	781.15498900000000	-48.56684200000000	0.15405900000000	0.00000000000000	-0.09886900000000	0.00000000000000	-15.47950400000000	0.00000000000000	0.00000000000000	-23.81876000000000	0.00000000000000	
13.65161500000000	-7.35748100000000	101.98052100000000	-20.48826000000000	0.36608600000000	0.00000000000000	0.09614500000000	-57.20421000000000	777.18169200000000	-48.19693400000000	0.15319600000000	0.00000000000000	-0.09873400000000	0.00000000000000	-15.64903300000000	0.00000000000000	0.00000000000000	-23.86686300000000	0.00000000000000	
13.65327500000000	-6.45116700000000	108.21860900000000	-20.28874100000000	0.36945600000000	0.00000000000000	0.09685700000000	-58.31229100000000	773.03472599999998	-47.80936600000000	0.15233800000000	0.00000000000000	-0.09859700000000	0.00000000000000	-15.71452600000000	0.00000000000000	0.00000000000000	-23.91334500000000	0.00000000000000	
13.65494000000000	-5.44203900000000	114.46737400000001	-19.96581500000000	0.37262000000000	0.00000000000000	0.09753100000000	-59.42149600000000	768.71123499999999	-47.40392400000000	0.15148500000000	0.00000000000000	-0.09845700000000	0.00000000000000	-15.69409700000000	0.00000000000000	0.00000000000000	-23.95774300000000	0.00000000000000	
13.65660700000000	-4.35058600000000	120.77777700000000	-19.54512300000000	0.37559300000000	0.00000000000000	0.09817200000000	-60.52950700000000	764.20845899999995	-46.98041500000000	0.15063600000000	0.00000000000000	-0.09831500000000	0.00000000000000	-15.60518100000000	0.00000000000000	0.00000000000000	-23.99957400000000	0.00000000000000	
13.65827600000000	-3.19471400000000	127.19663600000000	-19.04927700000000	0.37839000000000	0.00000000000000	0.09878200000000	-61.63391100000000	759.52374399999997	-46.53867300000000	0.14979300000000	0.00000000000000	-0.09817100000000	0.00000000000000	-15.46340400000000	0.00000000000000	0.00000000000000	-24.03834400000000	0.00000000000000	
13.65994100000000	-1.98914000000000	133.76387500000001	-18.49689100000000	0.38102200000000	0.00000000000000	0.09936500000000	-62.73220700000000	754.65456700000004	-46.07855600000000	0.14895300000000	0.00000000000000	-0.09802500000000	0.00000000000000	-15.28180600000000	0.00000000000000	0.00000000000000	-24.07354200000000	0.00000000000000	
13.66161200000000	-0.74512500000000	140.51073400000001	-17.90207000000000	0.38350000000000	0.00000000000000	0.09992100000000	-63.82180800000000	749.59854299999995	-45.59995100000000	0.14811800000000	0.00000000000000	-0.09787600000000	0.00000000000000	-15.07038100000000	0.00000000000000	0.00000000000000	-24.10464800000000	0.00000000000000	
13.66327500000000	0.52948800000000	147.45891900000001	-17.27432900000000	0.38583300000000	0.00000000000000	0.10045500000000	-64.90005300000000	744.35345199999995	-45.10277400000000	0.14728800000000	0.00000000000000	-0.09772600000000	0.00000000000000	-14.83594300000000	0.00000000000000	0.00000000000000	-24.13113000000000	0.00000000000000	
13.66494100000000	1.82998600000000	154.62057200000001	-16.61887100000000	0.38803000000000	0.00000000000000	0.10096600000000	-65.96420500000001	738.91725299999996	-44.58697700000000	0.14646200000000	0.00000000000000	-0.09757300000000	0.00000000000000	-14.58225400000000	0.00000000000000	0.00000000000000	-24.15245100000000	0.00000000000000	
13.66660700000000	3.15432300000000	161.99891800000000	-15.93713300000000	0.39009900000000	0.00000000000000	0.10145800000000	-67.01146700000000	733.28810199999998	-44.05254200000000	0.14563900000000	0.00000000000000	-0.09741900000000	0.00000000000000	-14.31036200000000	0.00000000000000	0.00000000000000	-24.16806300000000	0.00000000000000	
13.66827700000000	4.50254100000000	169.58942200000001	-15.22750400000000	0.39204600000000	0.00000000000000	0.10193100000000	-68.03898200000000	727.46437000000003	-43.49949100000000	0.14482100000000	0.00000000000000	-0.09726200000000	0.00000000000000	-14.01908400000000	0.00000000000000	0.00000000000000	-24.17741700000000	0.00000000000000	
13.66994000000000	5.87614900000000	177.38126700000001	-14.48615000000000	0.39387800000000	0.00000000000000	0.10238500000000	-69.04384500000000	721.44466299999999	-42.92788200000000	0.14400600000000	0.00000000000000	-0.09710300000000	0.00000000000000	-13.70557500000000	0.00000000000000	0.00000000000000	-24.17995900000000	0.00000000000000	
13.67161300000000	7.27750200000000	185.35898100000000	-13.70784100000000	0.39560000000000	0.00000000000000	0.10282400000000	-70.02311300000000	715.22783700000002	-42.33781200000000	0.14319600000000	0.00000000000000	-0.09694200000000	0.00000000000000	-13.36591400000000	0.00000000000000	0.00000000000000	-24.17513700000000	0.00000000000000	
13.67327500000000	8.70923800000000	193.50408200000001	-12.88673500000000	0.39721800000000	0.00000000000000	0.10324600000000	-70.97380900000000	708.81301499999995	-41.72941900000000	0.14238800000000	0.00000000000000	-0.09678000000000	0.00000000000000	-12.99567000000000	0.00000000000000	0.00000000000000	-24.16239600000000	0.00000000000000	
